<svg width="220" height="85" viewBox="0 0 220 85" fill="none" xmlns="http://www.w3.org/2000/svg">
<path fill-rule="evenodd" clip-rule="evenodd" d="M0 25L8.79167 27.4583C17.5833 29.9167 35.1667 34.8333 52.75 38.5208C70.3333 42.2083 87.9167 44.6667 105.5 40.9792C123.083 37.2917 140.667 27.4583 158.25 28.6875C175.833 29.9167 193.417 42.2083 202.208 48.3542L211 54.5V84H202.208C193.417 84 175.833 84 158.25 84C140.667 84 123.083 84 105.5 84C87.9167 84 70.3333 84 52.75 84C35.1667 84 17.5833 84 8.79167 84H0V25Z" fill="#E3F4FF"/>
<path d="M10.6371 8.60617C12.456 8.06161 14.0633 7.76605 15.4592 7.71949C16.8755 7.66681 18.0848 7.91638 19.087 8.4682C20.1097 9.01391 20.9454 9.89958 21.5939 11.1252C22.013 11.9172 22.2237 12.6732 22.226 13.3934C22.2387 14.0885 22.0381 14.7384 21.6241 15.3429C21.2205 15.9224 20.609 16.4222 19.7896 16.8423L19.8644 16.9837C20.854 16.8403 21.8114 16.8377 22.7367 16.9757C23.6824 17.1075 24.5445 17.4392 25.323 17.9707C26.1014 18.5021 26.77 19.2958 27.3287 20.3518C27.9773 21.5774 28.2246 22.7157 28.0704 23.7666C27.9063 24.7987 27.3718 25.7123 26.4668 26.5075C25.5723 27.2777 24.3382 27.8984 22.7645 28.3695L15.0699 30.6732L4.38332 10.4785L10.6371 8.60617ZM15.7389 17.0393C17.6191 16.4764 18.762 15.8175 19.1675 15.0626C19.563 14.2889 19.4714 13.3552 18.8926 12.2616C18.3039 11.1491 17.4557 10.4856 16.3479 10.2712C15.2505 10.0318 13.7719 10.1905 11.9122 10.7473L8.2948 11.8303L11.6924 18.2508L15.7389 17.0393ZM12.8149 20.3721L16.6914 27.6976L21.1058 26.376C23.0474 25.7947 24.2116 25.0421 24.5986 24.118C24.9856 23.1939 24.8797 22.1662 24.281 21.0349C23.9019 20.3183 23.3989 19.7481 22.772 19.3242C22.1657 18.8941 21.3891 18.6569 20.4424 18.6127C19.5061 18.5435 18.3636 18.7109 17.0147 19.1147L12.8149 20.3721Z" fill="#294D64"/>
<path d="M53.0124 20.8854C52.4372 22.56 51.7134 23.9838 50.8408 25.1567C49.9752 26.3095 48.9713 27.1811 47.8291 27.7716C46.706 28.3716 45.4619 28.64 44.0968 28.5768C42.7509 28.5231 41.3039 28.1123 39.7559 27.3444C38.1505 26.5481 36.8455 25.5938 35.8408 24.4814C34.843 23.3489 34.1186 22.104 33.6677 20.7469C33.2236 19.3695 33.0461 17.9001 33.1351 16.3385C33.2241 14.7769 33.5562 13.1587 34.1313 11.4841C34.8936 9.26465 35.9028 7.49834 37.159 6.18515C38.4153 4.87195 39.9003 4.09732 41.6142 3.86124C43.3472 3.63465 45.2839 4.05223 47.4244 5.114C49.4693 6.12837 51.0299 7.44564 52.1063 9.0658C53.1895 10.6658 53.7972 12.4785 53.9291 14.5039C54.0871 16.5186 53.7816 18.6458 53.0124 20.8854ZM36.8443 12.8652C36.2206 14.6811 35.9225 16.3633 35.9498 17.9118C35.9772 19.4603 36.3665 20.8341 37.1177 22.0332C37.8881 23.2418 39.0377 24.2254 40.5666 24.9838C42.1147 25.7517 43.4973 26.0242 44.7145 25.8015C45.9508 25.5883 47.033 24.9445 47.9612 23.87C48.8894 22.7955 49.6654 21.3504 50.289 19.5345C51.2245 16.8106 51.4205 14.4166 50.8769 12.3523C50.3402 10.2678 48.9157 8.65201 46.6032 7.50492C45.0552 6.73704 43.6535 6.45496 42.398 6.6587C41.1687 6.85174 40.0899 7.48549 39.1617 8.55997C38.2404 9.61426 37.4679 11.0494 36.8443 12.8652Z" fill="#294D64"/>
<path d="M73.6174 41.6104L70.8541 40.7988L74.9945 20.9051L68.0556 18.8671C67.6732 19.9737 67.2676 21.14 66.8387 22.3659C66.4141 23.571 65.9815 24.7626 65.5408 25.9408C65.1206 27.1249 64.7156 28.236 64.3258 29.274C63.936 30.3119 63.5745 31.2141 63.2412 31.9806C62.6839 33.3018 62.1086 34.3961 61.5154 35.2635C60.9222 36.1309 60.246 36.7191 59.4866 37.0279C58.7478 37.3428 57.8564 37.347 56.8125 37.0404C56.4645 36.9382 56.115 36.7912 55.764 36.5994C55.429 36.4346 55.1394 36.2609 54.895 36.0783L55.384 33.7286C55.5875 33.8992 55.8238 34.0683 56.0929 34.236C56.3665 34.3829 56.667 34.5044 56.9945 34.6005C57.6085 34.7809 58.1417 34.6715 58.594 34.2725C59.0711 33.8586 59.4903 33.3057 59.8514 32.6139C60.2169 31.9013 60.5496 31.19 60.8494 30.4802C61.0982 29.9106 61.4089 29.1486 61.7813 28.1942C62.158 27.2189 62.5797 26.0795 63.0465 24.776C63.5337 23.4785 64.0449 22.0662 64.5799 20.539C65.1398 18.9969 65.7024 17.3892 66.2679 15.7158L78.2728 19.2417L73.6174 41.6104Z" fill="#294D64"/>
<path d="M102.477 41.2644L99.6096 41.5383L98.0953 30.9904L86.4363 32.104L87.9507 42.6519L85.0837 42.9257L81.8367 20.3096L84.7037 20.0357L86.0771 29.6017L97.736 28.4881L96.3626 18.9222L99.2296 18.6483L102.477 41.2644Z" fill="#294D64"/>
<path d="M125.528 35.3776L120.781 29.4558L112.141 32.1693L111.668 39.7307L108.889 40.6032L110.525 16.0405L112.998 15.2639L128.367 34.4859L125.528 35.3776ZM114.674 21.4459C114.561 21.3023 114.367 21.0391 114.09 20.6565C113.813 20.2739 113.533 19.8811 113.25 19.4781C112.981 19.0484 112.767 18.7242 112.609 18.5055C112.635 18.9445 112.654 19.3969 112.666 19.8626C112.692 20.3016 112.699 20.7132 112.686 21.0976C112.693 21.4755 112.694 21.7993 112.689 22.0691L112.289 29.4395L119.189 27.2726L114.674 21.4459Z" fill="#294D64"/>
<path d="M158.122 16.1774C158.104 17.7346 157.601 19.0154 156.613 20.0196C155.626 21.0026 154.312 21.6948 152.673 22.0964L152.671 22.2244C154.581 22.3102 156.03 22.778 157.018 23.6277C158.005 24.4774 158.491 25.6596 158.473 27.1741C158.458 28.518 158.104 29.7322 157.412 30.8167C156.721 31.8798 155.692 32.7598 154.325 33.4568C152.958 34.1538 151.255 34.593 149.215 34.7746C147.983 34.8843 146.805 34.8932 145.681 34.8014C144.578 34.7291 143.551 34.5009 142.6 34.1167L142.63 31.4928C143.285 31.7542 143.983 31.9691 144.724 32.1376C145.487 32.2828 146.25 32.3854 147.013 32.4453C147.777 32.4839 148.509 32.472 149.211 32.4096C151.251 32.228 152.796 31.707 153.846 30.8464C154.917 29.9839 155.461 28.8487 155.477 27.4408C155.494 25.9902 154.89 24.9891 153.665 24.4375C152.44 23.8859 150.723 23.7084 148.513 23.9051L145.262 24.1944L145.289 21.7945L148.381 21.5194C149.89 21.3851 151.135 21.1039 152.116 20.6756C153.119 20.2454 153.868 19.6992 154.364 19.0371C154.881 18.3518 155.145 17.5825 155.155 16.7292C155.168 15.5773 154.753 14.7298 153.91 14.1868C153.067 13.6438 151.966 13.4328 150.606 13.5539C149.182 13.6806 147.99 13.9678 147.03 14.4155C146.091 14.8614 145.172 15.412 144.273 16.0674L142.924 14.2375C143.525 13.7365 144.209 13.2814 144.978 12.872C145.768 12.4394 146.643 12.0739 147.602 11.7755C148.56 11.4771 149.582 11.2796 150.665 11.1832C152.301 11.0376 153.669 11.1609 154.769 11.5532C155.889 11.9437 156.731 12.54 157.295 13.3422C157.859 14.1231 158.135 15.0681 158.122 16.1774Z" fill="#294D64"/>
<path d="M179.327 33.4894L177.526 26.5148L168.471 26.6244L164.8 33.6651L161.889 33.7003L173.899 10.8565L176.491 10.8251L182.303 33.4534L179.327 33.4894ZM175.375 17.1702C175.334 17.0018 175.269 16.6966 175.18 16.2544C175.091 15.8123 175.003 15.3596 174.917 14.8963C174.855 14.4117 174.798 14.043 174.747 13.7904C174.583 14.2145 174.407 14.6492 174.219 15.0947C174.055 15.5188 173.885 15.9113 173.708 16.2723C173.553 16.6329 173.415 16.9406 173.295 17.1953L169.775 24.076L177.006 23.9885L175.375 17.1702Z" fill="#294D64"/>
<path d="M208.861 29.7245C208.379 31.4282 207.717 32.958 206.875 34.3141C206.039 35.6497 205.033 36.7807 203.855 37.7071C202.699 38.6355 201.387 39.3079 199.918 39.7245C198.471 40.1429 196.886 40.2757 195.165 40.1227C193.38 39.964 191.905 39.5593 190.738 38.9086C189.578 38.2373 188.701 37.3703 188.109 36.3076C187.523 35.2244 187.215 33.966 187.185 32.5325C187.156 31.099 187.382 29.5304 187.865 27.8267C188.504 25.5689 189.445 23.6324 190.687 22.0173C191.928 20.4021 193.458 19.1914 195.277 18.3851C197.117 17.5807 199.227 17.2843 201.607 17.4958C203.881 17.6979 205.659 18.34 206.943 19.422C208.233 20.4836 209.029 21.9011 209.333 23.6746C209.664 25.4295 209.506 27.4462 208.861 29.7245ZM190.884 28.1267C190.361 29.974 190.176 31.5883 190.329 32.9697C190.482 34.3511 191.01 35.4501 191.911 36.2668C192.834 37.0853 194.145 37.5701 195.845 37.7212C197.567 37.8742 199.071 37.6396 200.358 37.0175C201.667 36.3973 202.775 35.4438 203.685 34.1568C204.594 32.8699 205.31 31.3027 205.833 29.4554C206.618 26.6844 206.636 24.466 205.888 22.8003C205.146 21.114 203.489 20.1566 200.918 19.9281C199.197 19.7751 197.671 20.0078 196.342 20.6261C195.039 21.2257 193.933 22.1691 193.024 23.456C192.121 24.7225 191.407 26.2793 190.884 28.1267Z" fill="#294D64"/>
<path fill-rule="evenodd" clip-rule="evenodd" d="M1.83665e-08 42.9233L7.03333 37.4465C14.0667 31.9696 28.1333 21.0158 42.2 26.4927C56.2667 31.9696 70.3333 53.8771 84.4 60.7232C98.4667 67.5693 112.533 59.354 126.6 49.7695C140.667 40.1849 154.733 29.2311 168.8 27.8619C182.867 26.4927 196.933 34.708 203.967 38.8157L211 42.9233L211 84L203.967 84C196.933 84 182.867 84 168.8 84C154.733 84 140.667 84 126.6 84C112.533 84 98.4667 84 84.4 84C70.3333 84 56.2667 84 42.2 84C28.1333 84 14.0667 84 7.03333 84L6.04587e-08 84L1.83665e-08 42.9233Z" fill="#0099FF"/>
<path fill-rule="evenodd" clip-rule="evenodd" d="M1.85584e-08 59.1107L9 59.1107C18 59.1107 35 59.1107 53 58.1107C70 57.1107 88 55.1107 106 50.1107C123 46.1107 141 40.1107 158 41.1107C176 42.1107 193 50.1107 202 55.1107L211 59.1107L211 84.1107L202 84.1107C193 84.1107 176 84.1107 158 84.1107C141 84.1107 123 84.1107 106 84.1107C88 84.1107 70 84.1107 53 84.1107C35 84.1107 18 84.1107 9 84.1107L4.41765e-08 84.1107L1.85584e-08 59.1107Z" fill="white"/>
<path d="M6.14834e-09 72C2.75271e-09 68.6863 2.68629 66 6 66L205 66C208.314 66 211 68.6863 211 72L211 84L1.8445e-08 84L6.14834e-09 72Z" fill="#454545"/>
</svg>
